<?xml version="1.0" encoding="UTF-8"?>
<svg xmlns="http://www.w3.org/2000/svg" xmlns:xlink="http://www.w3.org/1999/xlink" width="16px" height="16px" viewBox="0 0 16 16" version="1.1">
<g id="surface1">
<path style="fill:none;stroke-width:100;stroke-linecap:butt;stroke-linejoin:miter;stroke:rgb(0%,0%,0%);stroke-opacity:1;stroke-miterlimit:4;" d="M 251 50 L 773 50 C 884 50 974 140 974 251 L 974 773 C 974 884 884 974 773 974 L 251 974 C 140 974 50 884 50 773 L 50 251 C 50 140 140 50 251 50 Z M 251 50 " transform="matrix(0.015625,0,0,0.015625,0,0)"/>
<path style=" stroke:none;fill-rule:nonzero;fill:rgb(0%,0%,0%);fill-opacity:1;" d="M 2.78125 15.546875 C 2.785156 14.261719 3.828125 13.21875 5.117188 13.21875 L 10.898438 13.21875 C 12.1875 13.21875 13.230469 14.261719 13.234375 15.546875 Z M 2.78125 15.546875 "/>
<path style=" stroke:none;fill-rule:nonzero;fill:rgb(0%,0%,0%);fill-opacity:1;" d="M 10.320312 2.609375 C 11.367188 2.609375 12.21875 3.460938 12.21875 4.507812 C 12.21875 5.554688 11.367188 6.40625 10.320312 6.40625 L 5.679688 6.40625 C 4.632812 6.40625 3.78125 5.554688 3.78125 4.507812 C 3.78125 3.460938 4.632812 2.609375 5.679688 2.609375 Z M 8.527344 2.925781 C 7.652344 2.925781 6.945312 3.632812 6.945312 4.507812 C 6.945312 5.382812 7.652344 6.089844 8.527344 6.089844 L 10.320312 6.089844 C 11.195312 6.089844 11.902344 5.382812 11.902344 4.507812 C 11.902344 3.632812 11.195312 2.925781 10.320312 2.925781 Z M 8.527344 2.925781 "/>
<path style=" stroke:none;fill-rule:nonzero;fill:rgb(0%,0%,0%);fill-opacity:1;" d="M 5.679688 11.359375 C 4.632812 11.359375 3.78125 10.507812 3.78125 9.460938 C 3.78125 8.414062 4.632812 7.5625 5.679688 7.5625 L 10.320312 7.5625 C 11.367188 7.5625 12.21875 8.414062 12.21875 9.460938 C 12.21875 10.507812 11.367188 11.359375 10.320312 11.359375 Z M 7.472656 11.042969 C 8.347656 11.042969 9.054688 10.335938 9.054688 9.460938 C 9.054688 8.585938 8.347656 7.878906 7.472656 7.878906 L 5.679688 7.878906 C 4.804688 7.878906 4.097656 8.585938 4.097656 9.460938 C 4.097656 10.335938 4.804688 11.042969 5.679688 11.042969 Z M 7.472656 11.042969 "/>
</g>
</svg>
